<mxfile host="app.diagrams.net" modified="2023-10-23T19:03:19.982Z" agent="Mozilla/5.0 (Macintosh; Intel Mac OS X 10_15_7) AppleWebKit/537.36 (KHTML, like Gecko) Chrome/118.0.0.0 Safari/537.36" etag="dHal05KEAb_KoSkPD8mT" version="22.0.6" type="google">
  <diagram name="Página-1" id="zwgWH8tIbqhbOZwv7jTy">
    <mxGraphModel grid="1" page="1" gridSize="10" guides="1" tooltips="1" connect="1" arrows="1" fold="1" pageScale="1" pageWidth="827" pageHeight="1169" math="0" shadow="0">
      <root>
        <mxCell id="0" />
        <mxCell id="1" parent="0" />
        <mxCell id="YroPnB3GC3LTP978coZT-1" value="" style="shape=folder;fontStyle=1;spacingTop=10;tabWidth=60;tabHeight=20;tabPosition=left;html=1;whiteSpace=wrap;" vertex="1" parent="1">
          <mxGeometry x="50" y="30" width="450" height="300" as="geometry" />
        </mxCell>
        <mxCell id="YroPnB3GC3LTP978coZT-2" value="ConexionBDD" style="swimlane;fontStyle=1;align=center;verticalAlign=top;childLayout=stackLayout;horizontal=1;startSize=26;horizontalStack=0;resizeParent=1;resizeParentMax=0;resizeLast=0;collapsible=1;marginBottom=0;whiteSpace=wrap;html=1;" vertex="1" parent="1">
          <mxGeometry x="195" y="80" width="160" height="86" as="geometry" />
        </mxCell>
        <mxCell id="YroPnB3GC3LTP978coZT-3" value="+ conectarBDD()" style="text;strokeColor=none;fillColor=none;align=left;verticalAlign=top;spacingLeft=4;spacingRight=4;overflow=hidden;rotatable=0;points=[[0,0.5],[1,0.5]];portConstraint=eastwest;whiteSpace=wrap;html=1;" vertex="1" parent="YroPnB3GC3LTP978coZT-2">
          <mxGeometry y="26" width="160" height="26" as="geometry" />
        </mxCell>
        <mxCell id="YroPnB3GC3LTP978coZT-4" value="" style="line;strokeWidth=1;fillColor=none;align=left;verticalAlign=middle;spacingTop=-1;spacingLeft=3;spacingRight=3;rotatable=0;labelPosition=right;points=[];portConstraint=eastwest;strokeColor=inherit;" vertex="1" parent="YroPnB3GC3LTP978coZT-2">
          <mxGeometry y="52" width="160" height="8" as="geometry" />
        </mxCell>
        <mxCell id="YroPnB3GC3LTP978coZT-5" value="+ desconectarBDD()" style="text;strokeColor=none;fillColor=none;align=left;verticalAlign=top;spacingLeft=4;spacingRight=4;overflow=hidden;rotatable=0;points=[[0,0.5],[1,0.5]];portConstraint=eastwest;whiteSpace=wrap;html=1;" vertex="1" parent="YroPnB3GC3LTP978coZT-2">
          <mxGeometry y="60" width="160" height="26" as="geometry" />
        </mxCell>
        <mxCell id="YroPnB3GC3LTP978coZT-6" value="BDDEditarParticipante" style="swimlane;fontStyle=1;align=center;verticalAlign=top;childLayout=stackLayout;horizontal=1;startSize=26;horizontalStack=0;resizeParent=1;resizeParentMax=0;resizeLast=0;collapsible=1;marginBottom=0;whiteSpace=wrap;html=1;" vertex="1" parent="1">
          <mxGeometry x="130" y="190" width="340" height="120" as="geometry" />
        </mxCell>
        <mxCell id="YroPnB3GC3LTP978coZT-7" value="" style="line;strokeWidth=1;fillColor=none;align=left;verticalAlign=middle;spacingTop=-1;spacingLeft=3;spacingRight=3;rotatable=0;labelPosition=right;points=[];portConstraint=eastwest;strokeColor=inherit;" vertex="1" parent="YroPnB3GC3LTP978coZT-6">
          <mxGeometry y="26" width="340" height="8" as="geometry" />
        </mxCell>
        <mxCell id="YroPnB3GC3LTP978coZT-8" value="+ obtenerNombreParticipante(idParticipante: int): String&lt;br&gt;+ obtenerCorreoParticipante(idParticipante: int): String&lt;br style=&quot;border-color: var(--border-color);&quot;&gt;+ obtenerUsernameParticipante(idParticipante: int): String&lt;br style=&quot;border-color: var(--border-color);&quot;&gt;+ obtenerFotoParticipante(idParticipante: int)&lt;br style=&quot;border-color: var(--border-color);&quot;&gt;+ modificarDatos(idParticipante: int, Participante)" style="text;strokeColor=none;fillColor=none;align=left;verticalAlign=top;spacingLeft=4;spacingRight=4;overflow=hidden;rotatable=0;points=[[0,0.5],[1,0.5]];portConstraint=eastwest;whiteSpace=wrap;html=1;" vertex="1" parent="YroPnB3GC3LTP978coZT-6">
          <mxGeometry y="34" width="340" height="86" as="geometry" />
        </mxCell>
        <mxCell id="YroPnB3GC3LTP978coZT-9" value="" style="shape=folder;fontStyle=1;spacingTop=10;tabWidth=60;tabHeight=20;tabPosition=left;html=1;whiteSpace=wrap;" vertex="1" parent="1">
          <mxGeometry x="50" y="340" width="450" height="280" as="geometry" />
        </mxCell>
        <mxCell id="YroPnB3GC3LTP978coZT-10" value="&lt;font style=&quot;font-size: 10px;&quot;&gt;Controlador&lt;/font&gt;" style="text;html=1;strokeColor=none;fillColor=none;align=center;verticalAlign=middle;whiteSpace=wrap;rounded=0;" vertex="1" parent="1">
          <mxGeometry x="50" y="330" width="60" height="30" as="geometry" />
        </mxCell>
        <mxCell id="YroPnB3GC3LTP978coZT-11" value="ControladorParticipante" style="swimlane;fontStyle=1;align=center;verticalAlign=top;childLayout=stackLayout;horizontal=1;startSize=26;horizontalStack=0;resizeParent=1;resizeParentMax=0;resizeLast=0;collapsible=1;marginBottom=0;whiteSpace=wrap;html=1;" vertex="1" parent="1">
          <mxGeometry x="60" y="380" width="430" height="70" as="geometry" />
        </mxCell>
        <mxCell id="YroPnB3GC3LTP978coZT-13" value="+ obtenerDatosParticipante(idParticipante: int): Participante&lt;br&gt;+ modificarDatosParticipante(idParticipante: int, participante: Participante)" style="text;strokeColor=none;fillColor=none;align=left;verticalAlign=top;spacingLeft=4;spacingRight=4;overflow=hidden;rotatable=0;points=[[0,0.5],[1,0.5]];portConstraint=eastwest;whiteSpace=wrap;html=1;" vertex="1" parent="YroPnB3GC3LTP978coZT-11">
          <mxGeometry y="26" width="430" height="36" as="geometry" />
        </mxCell>
        <mxCell id="YroPnB3GC3LTP978coZT-12" value="" style="line;strokeWidth=1;fillColor=none;align=left;verticalAlign=middle;spacingTop=-1;spacingLeft=3;spacingRight=3;rotatable=0;labelPosition=right;points=[];portConstraint=eastwest;strokeColor=inherit;" vertex="1" parent="YroPnB3GC3LTP978coZT-11">
          <mxGeometry y="62" width="430" height="8" as="geometry" />
        </mxCell>
        <mxCell id="YroPnB3GC3LTP978coZT-14" value="" style="shape=folder;fontStyle=1;spacingTop=10;tabWidth=60;tabHeight=20;tabPosition=left;html=1;whiteSpace=wrap;" vertex="1" parent="1">
          <mxGeometry x="50" y="660" width="450" height="270" as="geometry" />
        </mxCell>
        <mxCell id="YroPnB3GC3LTP978coZT-15" value="&lt;font style=&quot;font-size: 10px;&quot;&gt;Vista&lt;/font&gt;" style="text;html=1;strokeColor=none;fillColor=none;align=center;verticalAlign=middle;whiteSpace=wrap;rounded=0;" vertex="1" parent="1">
          <mxGeometry x="50" y="650" width="60" height="30" as="geometry" />
        </mxCell>
        <mxCell id="YroPnB3GC3LTP978coZT-19" value="&lt;font style=&quot;font-size: 10px;&quot;&gt;Modelo&lt;/font&gt;" style="text;html=1;strokeColor=none;fillColor=none;align=center;verticalAlign=middle;whiteSpace=wrap;rounded=0;" vertex="1" parent="1">
          <mxGeometry x="50" y="20" width="60" height="30" as="geometry" />
        </mxCell>
        <mxCell id="YroPnB3GC3LTP978coZT-21" value="Participante" style="swimlane;fontStyle=1;align=center;verticalAlign=top;childLayout=stackLayout;horizontal=1;startSize=26;horizontalStack=0;resizeParent=1;resizeParentMax=0;resizeLast=0;collapsible=1;marginBottom=0;whiteSpace=wrap;html=1;" vertex="1" parent="1">
          <mxGeometry x="130" y="470" width="290" height="130" as="geometry" />
        </mxCell>
        <mxCell id="YroPnB3GC3LTP978coZT-22" value="" style="line;strokeWidth=1;fillColor=none;align=left;verticalAlign=middle;spacingTop=-1;spacingLeft=3;spacingRight=3;rotatable=0;labelPosition=right;points=[];portConstraint=eastwest;strokeColor=inherit;" vertex="1" parent="YroPnB3GC3LTP978coZT-21">
          <mxGeometry y="26" width="290" height="8" as="geometry" />
        </mxCell>
        <mxCell id="YroPnB3GC3LTP978coZT-23" value="- id: String&lt;br&gt;- nombre : String&lt;br&gt;- correo : String&lt;br&gt;- username : String&amp;nbsp;&lt;br&gt;- foto: String&lt;br&gt;- contraseña : String" style="text;strokeColor=none;fillColor=none;align=left;verticalAlign=top;spacingLeft=4;spacingRight=4;overflow=hidden;rotatable=0;points=[[0,0.5],[1,0.5]];portConstraint=eastwest;whiteSpace=wrap;html=1;" vertex="1" parent="YroPnB3GC3LTP978coZT-21">
          <mxGeometry y="34" width="290" height="96" as="geometry" />
        </mxCell>
        <mxCell id="YroPnB3GC3LTP978coZT-25" value="VistaEditarParticipante" style="swimlane;fontStyle=1;align=center;verticalAlign=top;childLayout=stackLayout;horizontal=1;startSize=26;horizontalStack=0;resizeParent=1;resizeParentMax=0;resizeLast=0;collapsible=1;marginBottom=0;whiteSpace=wrap;html=1;" vertex="1" parent="1">
          <mxGeometry x="145" y="710" width="260" height="120" as="geometry" />
        </mxCell>
        <mxCell id="YroPnB3GC3LTP978coZT-26" value="+ participante: Participante" style="text;strokeColor=none;fillColor=none;align=left;verticalAlign=top;spacingLeft=4;spacingRight=4;overflow=hidden;rotatable=0;points=[[0,0.5],[1,0.5]];portConstraint=eastwest;whiteSpace=wrap;html=1;" vertex="1" parent="YroPnB3GC3LTP978coZT-25">
          <mxGeometry y="26" width="260" height="26" as="geometry" />
        </mxCell>
        <mxCell id="YroPnB3GC3LTP978coZT-27" value="" style="line;strokeWidth=1;fillColor=none;align=left;verticalAlign=middle;spacingTop=-1;spacingLeft=3;spacingRight=3;rotatable=0;labelPosition=right;points=[];portConstraint=eastwest;strokeColor=inherit;" vertex="1" parent="YroPnB3GC3LTP978coZT-25">
          <mxGeometry y="52" width="260" height="8" as="geometry" />
        </mxCell>
        <mxCell id="YroPnB3GC3LTP978coZT-28" value="+ mostrarFormulario()&lt;br&gt;+ modificarDatosParticipante()&lt;br&gt;+ mensajeError(mensaje: String)" style="text;strokeColor=none;fillColor=none;align=left;verticalAlign=top;spacingLeft=4;spacingRight=4;overflow=hidden;rotatable=0;points=[[0,0.5],[1,0.5]];portConstraint=eastwest;whiteSpace=wrap;html=1;" vertex="1" parent="YroPnB3GC3LTP978coZT-25">
          <mxGeometry y="60" width="260" height="60" as="geometry" />
        </mxCell>
      </root>
    </mxGraphModel>
  </diagram>
</mxfile>
